<svg xmlns="http://www.w3.org/2000/svg" xmlns:xlink="http://www.w3.org/1999/xlink" version="1.1" data-diagram-type="SEQUENCE" style="width:1809px;height:1201px;background:#FFFFFF;" width="1809px" height="1201px" viewBox="0 0 1809 1201" zoomAndPan="magnify" preserveAspectRatio="none" contentStyleType="text/css"><?plantuml 1.2026.8?><defs/><g font-family="sans-serif" lengthAdjust="spacing"><g class="title" data-source-line="2"><text x="426.458" y="37.118" fill="#000" font-size="22" textLength="954.83" font-weight="700" font-family="Verdana">AniTec — Diagrama de Secuencia: Sincronización Offline (TO-BE, Iteración 4)</text></g><rect x="301.123" y="382.716" width="1485.784" height="606.924" fill="#FFF" style="stroke:#FFF;stroke-width:1;"/><rect x="301.123" y="382.716" width="1485.784" height="606.924" fill="none" style="stroke:#000;stroke-width:1;"/><rect x="320.123" y="444.314" width="1441.784" height="531.326" fill="#FFF" style="stroke:#FFF;stroke-width:1;"/><rect x="320.123" y="444.314" width="1441.784" height="531.326" fill="none" style="stroke:#000;stroke-width:1;"/><rect x="339.123" y="630.479" width="1397.784" height="331.161" fill="#FFF" style="stroke:#FFF;stroke-width:1;"/><rect x="339.123" y="630.479" width="1397.784" height="331.161" fill="none" style="stroke:#000;stroke-width:1;"/><g><title>Usuario de campo</title><rect x="72.784" y="135.752" width="8" height="96.398" fill="#000" fill-opacity="0"/><line x1="76.284" y1="135.752" x2="76.284" y2="232.15" style="stroke:#000;stroke-width:1;stroke-dasharray:5,5;"/></g><line x1="76.284" y1="232.15" x2="76.284" y2="273.519" style="stroke:#000;stroke-width:1;stroke-dasharray:1,4;"/><g><title>Usuario de campo</title><rect x="72.784" y="273.519" width="8" height="839.118" fill="#000" fill-opacity="0"/><line x1="76.284" y1="273.519" x2="76.284" y2="1112.637" style="stroke:#000;stroke-width:1;stroke-dasharray:5,5;"/></g><g><title>Room .local. sin conexi.n.</title><rect x="351.623" y="135.752" width="8" height="96.398" fill="#000" fill-opacity="0"/><line x1="355.123" y1="135.752" x2="355.123" y2="232.15" style="stroke:#000;stroke-width:1;stroke-dasharray:5,5;"/></g><line x1="355.123" y1="232.15" x2="355.123" y2="273.519" style="stroke:#000;stroke-width:1;stroke-dasharray:1,4;"/><g><title>Room .local. sin conexi.n.</title><rect x="351.623" y="273.519" width="8" height="839.118" fill="#000" fill-opacity="0"/><line x1="355.123" y1="273.519" x2="355.123" y2="1112.637" style="stroke:#000;stroke-width:1;stroke-dasharray:5,5;"/></g><g><title>SyncWorker</title><rect x="689.22" y="135.752" width="8" height="96.398" fill="#000" fill-opacity="0"/><line x1="692.72" y1="135.752" x2="692.72" y2="232.15" style="stroke:#000;stroke-width:1;stroke-dasharray:5,5;"/></g><line x1="692.72" y1="232.15" x2="692.72" y2="273.519" style="stroke:#000;stroke-width:1;stroke-dasharray:1,4;"/><g><title>SyncWorker</title><rect x="689.22" y="273.519" width="8" height="839.118" fill="#000" fill-opacity="0"/><line x1="692.72" y1="273.519" x2="692.72" y2="1112.637" style="stroke:#000;stroke-width:1;stroke-dasharray:5,5;"/></g><g><title>API Gateway</title><rect x="877.301" y="135.752" width="8" height="96.398" fill="#000" fill-opacity="0"/><line x1="880.801" y1="135.752" x2="880.801" y2="232.15" style="stroke:#000;stroke-width:1;stroke-dasharray:5,5;"/></g><line x1="880.801" y1="232.15" x2="880.801" y2="273.519" style="stroke:#000;stroke-width:1;stroke-dasharray:1,4;"/><g><title>API Gateway</title><rect x="877.301" y="273.519" width="8" height="839.118" fill="#000" fill-opacity="0"/><line x1="880.801" y1="273.519" x2="880.801" y2="1112.637" style="stroke:#000;stroke-width:1;stroke-dasharray:5,5;"/></g><g><title>SyncController</title><rect x="1013.913" y="135.752" width="8" height="96.398" fill="#000" fill-opacity="0"/><line x1="1017.413" y1="135.752" x2="1017.413" y2="232.15" style="stroke:#000;stroke-width:1;stroke-dasharray:5,5;"/></g><line x1="1017.413" y1="232.15" x2="1017.413" y2="273.519" style="stroke:#000;stroke-width:1;stroke-dasharray:1,4;"/><g><title>SyncController</title><rect x="1013.913" y="273.519" width="8" height="839.118" fill="#000" fill-opacity="0"/><line x1="1017.413" y1="273.519" x2="1017.413" y2="1112.637" style="stroke:#000;stroke-width:1;stroke-dasharray:5,5;"/></g><g><title>Command Service</title><rect x="1328.141" y="135.752" width="8" height="96.398" fill="#000" fill-opacity="0"/><line x1="1331.641" y1="135.752" x2="1331.641" y2="232.15" style="stroke:#000;stroke-width:1;stroke-dasharray:5,5;"/></g><line x1="1331.641" y1="232.15" x2="1331.641" y2="273.519" style="stroke:#000;stroke-width:1;stroke-dasharray:1,4;"/><g><title>Command Service</title><rect x="1328.141" y="273.519" width="8" height="839.118" fill="#000" fill-opacity="0"/><line x1="1331.641" y1="273.519" x2="1331.641" y2="1112.637" style="stroke:#000;stroke-width:1;stroke-dasharray:5,5;"/></g><g><title>processed_sync_operations</title><rect x="1529.585" y="135.752" width="8" height="96.398" fill="#000" fill-opacity="0"/><line x1="1533.085" y1="135.752" x2="1533.085" y2="232.15" style="stroke:#000;stroke-width:1;stroke-dasharray:5,5;"/></g><line x1="1533.085" y1="232.15" x2="1533.085" y2="273.519" style="stroke:#000;stroke-width:1;stroke-dasharray:1,4;"/><g><title>processed_sync_operations</title><rect x="1529.585" y="273.519" width="8" height="839.118" fill="#000" fill-opacity="0"/><line x1="1533.085" y1="273.519" x2="1533.085" y2="1112.637" style="stroke:#000;stroke-width:1;stroke-dasharray:5,5;"/></g><g><title>Animal . HealthEvent</title><rect x="1717.407" y="135.752" width="8" height="96.398" fill="#000" fill-opacity="0"/><line x1="1720.907" y1="135.752" x2="1720.907" y2="232.15" style="stroke:#000;stroke-width:1;stroke-dasharray:5,5;"/></g><line x1="1720.907" y1="232.15" x2="1720.907" y2="273.519" style="stroke:#000;stroke-width:1;stroke-dasharray:1,4;"/><g><title>Animal . HealthEvent</title><rect x="1717.407" y="273.519" width="8" height="839.118" fill="#000" fill-opacity="0"/><line x1="1720.907" y1="273.519" x2="1720.907" y2="1112.637" style="stroke:#000;stroke-width:1;stroke-dasharray:5,5;"/></g><text x="10" y="132.813" fill="#000" font-size="14" textLength="126.567" font-family="Verdana">Usuario de campo</text><ellipse cx="76.284" cy="66.737" rx="8" ry="8" fill="#FFF" style="stroke:#000;stroke-width:1;"/><path d="M76.284,74.737 L76.284,101.737 M63.284,82.737 L89.284,82.737 M76.284,101.737 L63.284,116.737 M76.284,101.737 L89.284,116.737" style="stroke:#000;stroke-width:1;" fill="none"/><rect x="256.488" y="102.737" width="197.271" height="27.015" fill="#FFF" style="stroke:#000;stroke-width:1;" rx="2.5" ry="2.5"/><text x="261.488" y="121.813" fill="#000" font-size="14" textLength="187.271" font-family="Verdana">Room (local, sin conexión)</text><rect x="645.259" y="102.737" width="94.923" height="27.015" fill="#FFF" style="stroke:#000;stroke-width:1;" rx="2.5" ry="2.5"/><text x="650.259" y="121.813" fill="#000" font-size="14" textLength="84.923" font-family="Verdana">SyncWorker</text><rect x="830.752" y="102.737" width="100.098" height="27.015" fill="#FFF" style="stroke:#000;stroke-width:1;" rx="2.5" ry="2.5"/><text x="835.752" y="121.813" fill="#000" font-size="14" textLength="90.098" font-family="Verdana">API Gateway</text><rect x="960.85" y="102.737" width="113.127" height="27.015" fill="#FFF" style="stroke:#000;stroke-width:1;" rx="2.5" ry="2.5"/><text x="965.85" y="121.813" fill="#000" font-size="14" textLength="103.127" font-family="Verdana">SyncController</text><rect x="1250.177" y="85.723" width="162.927" height="44.029" fill="#FFF" style="stroke:#000;stroke-width:1;" rx="2.5" ry="2.5"/><text x="1267.608" y="104.798" fill="#000" font-size="14" textLength="128.064" font-family="Verdana">Command Service</text><text x="1255.177" y="121.813" fill="#000" font-size="14" textLength="152.927" font-family="Verdana">(Livestock / Sanitary)</text><text x="1433.104" y="132.813" fill="#000" font-size="14" textLength="193.963" font-family="Verdana">processed_sync_operations</text><path d="M1515.085,82.737 C1515.085,72.737 1533.085,72.737 1533.085,72.737 C1533.085,72.737 1551.085,72.737 1551.085,82.737 L1551.085,108.737 C1551.085,118.737 1533.085,118.737 1533.085,118.737 C1533.085,118.737 1515.085,118.737 1515.085,108.737 L1515.085,82.737" style="stroke:#000;stroke-width:1;" fill="#FFF"/><path d="M1515.085,82.737 C1515.085,92.737 1533.085,92.737 1533.085,92.737 C1533.085,92.737 1551.085,92.737 1551.085,82.737" style="stroke:#000;stroke-width:1;" fill="none"/><text x="1643.067" y="132.813" fill="#000" font-size="14" textLength="149.68" font-family="Verdana">Animal / HealthEvent</text><path d="M1702.907,82.737 C1702.907,72.737 1720.907,72.737 1720.907,72.737 C1720.907,72.737 1738.907,72.737 1738.907,82.737 L1738.907,108.737 C1738.907,118.737 1720.907,118.737 1720.907,118.737 C1720.907,118.737 1702.907,118.737 1702.907,108.737 L1702.907,82.737" style="stroke:#000;stroke-width:1;" fill="#FFF"/><path d="M1702.907,82.737 C1702.907,92.737 1720.907,92.737 1720.907,92.737 C1720.907,92.737 1738.907,92.737 1738.907,82.737" style="stroke:#000;stroke-width:1;" fill="none"/><text x="10" y="1126.712" fill="#000" font-size="14" textLength="126.567" font-family="Verdana">Usuario de campo</text><ellipse cx="76.284" cy="1138.651" rx="8" ry="8" fill="#FFF" style="stroke:#000;stroke-width:1;"/><path d="M76.284,1146.651 L76.284,1173.651 M63.284,1154.651 L89.284,1154.651 M76.284,1173.651 L63.284,1188.651 M76.284,1173.651 L89.284,1188.651" style="stroke:#000;stroke-width:1;" fill="none"/><rect x="256.488" y="1117.637" width="197.271" height="27.015" fill="#FFF" style="stroke:#000;stroke-width:1;" rx="2.5" ry="2.5"/><text x="261.488" y="1136.712" fill="#000" font-size="14" textLength="187.271" font-family="Verdana">Room (local, sin conexión)</text><rect x="645.259" y="1117.637" width="94.923" height="27.015" fill="#FFF" style="stroke:#000;stroke-width:1;" rx="2.5" ry="2.5"/><text x="650.259" y="1136.712" fill="#000" font-size="14" textLength="84.923" font-family="Verdana">SyncWorker</text><rect x="830.752" y="1117.637" width="100.098" height="27.015" fill="#FFF" style="stroke:#000;stroke-width:1;" rx="2.5" ry="2.5"/><text x="835.752" y="1136.712" fill="#000" font-size="14" textLength="90.098" font-family="Verdana">API Gateway</text><rect x="960.85" y="1117.637" width="113.127" height="27.015" fill="#FFF" style="stroke:#000;stroke-width:1;" rx="2.5" ry="2.5"/><text x="965.85" y="1136.712" fill="#000" font-size="14" textLength="103.127" font-family="Verdana">SyncController</text><rect x="1250.177" y="1117.637" width="162.927" height="44.029" fill="#FFF" style="stroke:#000;stroke-width:1;" rx="2.5" ry="2.5"/><text x="1267.608" y="1136.712" fill="#000" font-size="14" textLength="128.064" font-family="Verdana">Command Service</text><text x="1255.177" y="1153.727" fill="#000" font-size="14" textLength="152.927" font-family="Verdana">(Livestock / Sanitary)</text><text x="1433.104" y="1126.712" fill="#000" font-size="14" textLength="193.963" font-family="Verdana">processed_sync_operations</text><path d="M1515.085,1139.651 C1515.085,1129.651 1533.085,1129.651 1533.085,1129.651 C1533.085,1129.651 1551.085,1129.651 1551.085,1139.651 L1551.085,1165.651 C1551.085,1175.651 1533.085,1175.651 1533.085,1175.651 C1533.085,1175.651 1515.085,1175.651 1515.085,1165.651 L1515.085,1139.651" style="stroke:#000;stroke-width:1;" fill="#FFF"/><path d="M1515.085,1139.651 C1515.085,1149.651 1533.085,1149.651 1533.085,1149.651 C1533.085,1149.651 1551.085,1149.651 1551.085,1139.651" style="stroke:#000;stroke-width:1;" fill="none"/><text x="1643.067" y="1126.712" fill="#000" font-size="14" textLength="149.68" font-family="Verdana">Animal / HealthEvent</text><path d="M1702.907,1139.651 C1702.907,1129.651 1720.907,1129.651 1720.907,1129.651 C1720.907,1129.651 1738.907,1129.651 1738.907,1139.651 L1738.907,1165.651 C1738.907,1175.651 1720.907,1175.651 1720.907,1175.651 C1720.907,1175.651 1702.907,1175.651 1702.907,1165.651 L1702.907,1139.651" style="stroke:#000;stroke-width:1;" fill="#FFF"/><path d="M1702.907,1139.651 C1702.907,1149.651 1720.907,1149.651 1720.907,1149.651 C1720.907,1149.651 1738.907,1149.651 1738.907,1139.651" style="stroke:#000;stroke-width:1;" fill="none"/><polygon points="343.123,161.551,353.123,165.551,343.123,169.551,347.123,165.551" fill="#000" style="stroke:#000;stroke-width:1;stroke-linejoin:miter;stroke-miterlimit:10;"/><line x1="76.284" y1="165.551" x2="349.123" y2="165.551" style="stroke:#000;stroke-width:1;"/><text x="83.284" y="160.822" fill="#000" font-size="13" textLength="254.839" font-family="Verdana">Registrar evento sanitario sin conexión</text><line x1="355.123" y1="211.15" x2="397.123" y2="211.15" style="stroke:#000;stroke-width:1;"/><line x1="397.123" y1="211.15" x2="397.123" y2="224.15" style="stroke:#000;stroke-width:1;"/><line x1="356.123" y1="224.15" x2="397.123" y2="224.15" style="stroke:#000;stroke-width:1;"/><polygon points="366.123,220.15,356.123,224.15,366.123,228.15,362.123,224.15" fill="#000" style="stroke:#000;stroke-width:1;stroke-linejoin:miter;stroke-miterlimit:10;"/><text x="362.123" y="190.621" fill="#000" font-size="13" textLength="165.426" font-family="Verdana">INSERT OutboxOperation</text><text x="362.123" y="206.42" fill="#000" font-size="13" textLength="323.597" font-family="Verdana">(OperationId = UUID nuevo, Status = Pendiente)</text><text x="837.44" y="257.209" fill="#000" font-size="11" textLength="122.311" font-family="Verdana">vuelve la conectividad</text><polygon points="366.123,291.318,356.123,295.318,366.123,299.318,362.123,295.318" fill="#000" style="stroke:#000;stroke-width:1;stroke-linejoin:miter;stroke-miterlimit:10;"/><line x1="360.123" y1="295.318" x2="691.72" y2="295.318" style="stroke:#000;stroke-width:1;"/><text x="372.123" y="290.588" fill="#000" font-size="13" textLength="179.791" font-family="Verdana">Leer operaciones Pendiente</text><polygon points="868.801,336.917,878.801,340.917,868.801,344.917,872.801,340.917" fill="#000" style="stroke:#000;stroke-width:1;stroke-linejoin:miter;stroke-miterlimit:10;"/><line x1="692.72" y1="340.917" x2="874.801" y2="340.917" style="stroke:#000;stroke-width:1;"/><text x="699.72" y="320.388" fill="#000" font-size="13" textLength="164.081" font-family="Verdana">POST /api/v1/sync/batch</text><text x="699.72" y="336.187" fill="#000" font-size="13" textLength="139.179" font-family="Verdana">(lote de operaciones)</text><polygon points="1005.413,366.716,1015.413,370.716,1005.413,374.716,1009.413,370.716" fill="#000" style="stroke:#000;stroke-width:1;stroke-linejoin:miter;stroke-miterlimit:10;"/><line x1="880.801" y1="370.716" x2="1011.413" y2="370.716" style="stroke:#000;stroke-width:1;"/><text x="887.801" y="365.986" fill="#000" font-size="13" textLength="48.223" font-family="Verdana">enrutar</text><path d="M301.123,382.716 L377.506,382.716 L377.506,390.515 L367.506,400.515 L301.123,400.515 L301.123,382.716" style="stroke:#000;stroke-width:1;" fill="#FFF"/><rect x="301.123" y="382.716" width="1485.784" height="606.924" fill="none" style="stroke:#000;stroke-width:1;"/><text x="316.123" y="396.786" fill="#000" font-size="13" textLength="31.383" font-weight="700" font-family="Verdana">loop</text><text x="392.506" y="395.775" fill="#000" font-size="11" textLength="179.932" font-weight="700" font-family="Verdana">[por cada operación del lote]</text><polygon points="1521.085,428.314,1531.085,432.314,1521.085,436.314,1525.085,432.314" fill="#000" style="stroke:#000;stroke-width:1;stroke-linejoin:miter;stroke-miterlimit:10;"/><line x1="1017.413" y1="432.314" x2="1527.085" y2="432.314" style="stroke:#000;stroke-width:1;"/><text x="1024.413" y="427.585" fill="#000" font-size="13" textLength="183.257" font-family="Verdana">¿OperationId ya procesado?</text><path d="M320.123,444.314 L384.172,444.314 L384.172,452.114 L374.172,462.114 L320.123,462.114 L320.123,444.314" style="stroke:#000;stroke-width:1;" fill="#FFF"/><rect x="320.123" y="444.314" width="1441.784" height="531.326" fill="none" style="stroke:#000;stroke-width:1;"/><text x="335.123" y="458.384" fill="#000" font-size="13" textLength="19.049" font-weight="700" font-family="Verdana">alt</text><text x="399.172" y="457.374" fill="#000" font-size="11" textLength="94.773" font-weight="700" font-family="Verdana">[Ya procesado]</text><polygon points="1028.413,489.913,1018.413,493.913,1028.413,497.913,1024.413,493.913" fill="#000" style="stroke:#000;stroke-width:1;stroke-linejoin:miter;stroke-miterlimit:10;"/><line x1="1022.413" y1="493.913" x2="1532.085" y2="493.913" style="stroke:#000;stroke-width:1;stroke-dasharray:2,2;"/><text x="1034.413" y="489.184" fill="#000" font-size="13" textLength="12.454" font-family="Verdana">Sí</text><polygon points="703.72,519.712,693.72,523.712,703.72,527.712,699.72,523.712" fill="#000" style="stroke:#000;stroke-width:1;stroke-linejoin:miter;stroke-miterlimit:10;"/><line x1="697.72" y1="523.712" x2="1016.413" y2="523.712" style="stroke:#000;stroke-width:1;stroke-dasharray:2,2;"/><text x="709.72" y="518.983" fill="#000" font-size="13" textLength="204.407" font-family="Verdana">"ya sincronizado" (sin duplicar)</text><line x1="320.123" y1="532.712" x2="1761.907" y2="532.712" style="stroke:#000;stroke-width:1;stroke-dasharray:2,2;"/><text x="325.123" y="545.771" fill="#000" font-size="11" textLength="96.186" font-weight="700" font-family="Verdana">[No procesado]</text><polygon points="1028.413,568.88,1018.413,572.88,1028.413,576.88,1024.413,572.88" fill="#000" style="stroke:#000;stroke-width:1;stroke-linejoin:miter;stroke-miterlimit:10;"/><line x1="1022.413" y1="572.88" x2="1532.085" y2="572.88" style="stroke:#000;stroke-width:1;stroke-dasharray:2,2;"/><text x="1034.413" y="568.151" fill="#000" font-size="13" textLength="17.615" font-family="Verdana">No</text><polygon points="1708.907,614.479,1718.907,618.479,1708.907,622.479,1712.907,618.479" fill="#000" style="stroke:#000;stroke-width:1;stroke-linejoin:miter;stroke-miterlimit:10;"/><line x1="1017.413" y1="618.479" x2="1714.907" y2="618.479" style="stroke:#000;stroke-width:1;"/><text x="1024.413" y="597.95" fill="#000" font-size="13" textLength="204.782" font-family="Verdana">¿UpdatedAt coincide con el que</text><text x="1024.413" y="613.75" fill="#000" font-size="13" textLength="115.584" font-family="Verdana">el cliente conoce?</text><path d="M339.123,630.479 L403.172,630.479 L403.172,638.278 L393.172,648.278 L339.123,648.278 L339.123,630.479" style="stroke:#000;stroke-width:1;" fill="#FFF"/><rect x="339.123" y="630.479" width="1397.784" height="331.161" fill="none" style="stroke:#000;stroke-width:1;"/><text x="354.123" y="644.549" fill="#000" font-size="13" textLength="19.049" font-weight="700" font-family="Verdana">alt</text><text x="418.172" y="643.538" fill="#000" font-size="11" textLength="155.058" font-weight="700" font-family="Verdana">[UpdatedAt desalineado]</text><polygon points="1028.413,676.078,1018.413,680.078,1028.413,684.078,1024.413,680.078" fill="#000" style="stroke:#000;stroke-width:1;stroke-linejoin:miter;stroke-miterlimit:10;"/><line x1="1022.413" y1="680.078" x2="1719.907" y2="680.078" style="stroke:#000;stroke-width:1;stroke-dasharray:2,2;"/><text x="1034.413" y="675.348" fill="#000" font-size="13" textLength="74.826" font-family="Verdana">No coincide</text><polygon points="703.72,721.676,693.72,725.676,703.72,729.676,699.72,725.676" fill="#000" style="stroke:#000;stroke-width:1;stroke-linejoin:miter;stroke-miterlimit:10;"/><line x1="697.72" y1="725.676" x2="1016.413" y2="725.676" style="stroke:#000;stroke-width:1;stroke-dasharray:2,2;"/><text x="709.72" y="705.147" fill="#000" font-size="13" textLength="78.159" font-family="Verdana">409 Conflict</text><text x="709.72" y="720.947" fill="#000" font-size="13" textLength="248.428" font-family="Verdana">(ambas versiones, sin aplicar cambio)</text><polygon points="366.123,751.476,356.123,755.476,366.123,759.476,362.123,755.476" fill="#000" style="stroke:#000;stroke-width:1;stroke-linejoin:miter;stroke-miterlimit:10;"/><line x1="360.123" y1="755.476" x2="691.72" y2="755.476" style="stroke:#000;stroke-width:1;"/><text x="372.123" y="750.746" fill="#000" font-size="13" textLength="175.462" font-family="Verdana">UPDATE Status = Conflicto</text><line x1="339.123" y1="764.476" x2="1736.907" y2="764.476" style="stroke:#000;stroke-width:1;stroke-dasharray:2,2;"/><text x="344.123" y="777.535" fill="#000" font-size="11" textLength="131.785" font-weight="700" font-family="Verdana">[UpdatedAt coincide]</text><polygon points="1028.413,800.644,1018.413,804.644,1028.413,808.644,1024.413,804.644" fill="#000" style="stroke:#000;stroke-width:1;stroke-linejoin:miter;stroke-miterlimit:10;"/><line x1="1022.413" y1="804.644" x2="1719.907" y2="804.644" style="stroke:#000;stroke-width:1;stroke-dasharray:2,2;"/><text x="1034.413" y="799.914" fill="#000" font-size="13" textLength="54.945" font-family="Verdana">Coincide</text><polygon points="1319.641,830.443,1329.641,834.443,1319.641,838.443,1323.641,834.443" fill="#000" style="stroke:#000;stroke-width:1;stroke-linejoin:miter;stroke-miterlimit:10;"/><line x1="1017.413" y1="834.443" x2="1325.641" y2="834.443" style="stroke:#000;stroke-width:1;"/><text x="1024.413" y="829.713" fill="#000" font-size="13" textLength="290.228" font-family="Verdana">Handle(comando existente correspondiente)</text><polygon points="1708.907,860.242,1718.907,864.242,1708.907,868.242,1712.907,864.242" fill="#000" style="stroke:#000;stroke-width:1;stroke-linejoin:miter;stroke-miterlimit:10;"/><line x1="1331.641" y1="864.242" x2="1714.907" y2="864.242" style="stroke:#000;stroke-width:1;"/><text x="1338.641" y="859.513" fill="#000" font-size="13" textLength="94.523" font-family="Verdana">aplicar cambio</text><polygon points="1521.085,890.042,1531.085,894.042,1521.085,898.042,1525.085,894.042" fill="#000" style="stroke:#000;stroke-width:1;stroke-linejoin:miter;stroke-miterlimit:10;"/><line x1="1017.413" y1="894.042" x2="1527.085" y2="894.042" style="stroke:#000;stroke-width:1;"/><text x="1024.413" y="889.312" fill="#000" font-size="13" textLength="314.831" font-family="Verdana">INSERT OperationId (registrar como procesado)</text><polygon points="703.72,919.841,693.72,923.841,703.72,927.841,699.72,923.841" fill="#000" style="stroke:#000;stroke-width:1;stroke-linejoin:miter;stroke-miterlimit:10;"/><line x1="697.72" y1="923.841" x2="1016.413" y2="923.841" style="stroke:#000;stroke-width:1;stroke-dasharray:2,2;"/><text x="709.72" y="919.111" fill="#000" font-size="13" textLength="48.604" font-family="Verdana">200 OK</text><polygon points="366.123,949.64,356.123,953.64,366.123,957.64,362.123,953.64" fill="#000" style="stroke:#000;stroke-width:1;stroke-linejoin:miter;stroke-miterlimit:10;"/><line x1="360.123" y1="953.64" x2="691.72" y2="953.64" style="stroke:#000;stroke-width:1;"/><text x="372.123" y="948.911" fill="#000" font-size="13" textLength="202.09" font-family="Verdana">UPDATE Status = Sincronizado</text><path d="M182.479,1008.64 L182.479,1096.64 L527.479,1096.64 L527.479,1018.64 L517.479,1008.64 L182.479,1008.64" style="stroke:#000;stroke-width:1;" fill="#FFF"/><path d="M517.479,1008.64 L517.479,1018.64 L527.479,1018.64 L517.479,1008.64" style="stroke:#000;stroke-width:1;" fill="#FFF"/><text x="188.479" y="1026.71" fill="#000" font-size="13" textLength="281.912" font-family="Verdana">Riesgo aceptado y documentado (4.3.4.6):</text><text x="188.479" y="1042.509" fill="#000" font-size="13" textLength="294.519" font-family="Verdana">una operación que nunca superó "Pendiente"</text><text x="188.479" y="1058.309" fill="#000" font-size="13" textLength="324.289" font-family="Verdana">(dispositivo perdido/dañado antes de sincronizar)</text><text x="188.479" y="1074.108" fill="#000" font-size="13" textLength="308.09" font-family="Verdana">se pierde — limitación inherente de offline-first</text><text x="188.479" y="1089.907" fill="#000" font-size="13" textLength="196.987" font-family="Verdana">sin respaldo local redundante.</text><?plantuml-src ZLLRRYD55FtlLLpyWosbxGnZ8M69e3myCnv6iKax82IaKQNg9YcbkggfhlQC-M8BI6o33vG58E6Ti19ELVj91fYFEDrLztdEkRS_2VTSCbL6Q9i57GpJgTLpblJNpx_IXHPtNfI255F1ic4hjHXHeQtqpkgVXDIhHqlJsrkZBLDtFitFnaSq2UpNLyDUzYczW6FW4Gch0ylSS-Ly69J2FoZtpWwamwqD0talAdZcmy4mVvuFSnt31Eqidkkzb3XWTSTvSBaqhb7zKY59jsQvpjb_tX_sF-_rwM9IZ5U_J6bwzdeydtmxJKrPH_nUru59hXwLldEnEr5LLAuU5zgGrJX0G8ucR5Nbj0qao0YwPTGOpTETjhVE0xpkU9OVFniUqJUd1Hu6Po_pus6ldsL21kUfSrqtmkkKHegoSXqIDRtGR5HM2H-qr9L0XiwLSoLrZPF2714Q9W23Ij5IBxd4-qEFOcdbTyu_i4y6xUEXoUbiGYz5u7TYcMpMpq_Zd8C5xunPnqf7mPj3mtDNbi8gYC4ljEGVRFUDNW0C9nzeG4KaMFXbM-vvgOg5p9G8uaRKJ9tAEybrpUfjZU1lNRMcjqxcCznUdEsPGuUbC0ZxYeK9z-C5D98innP2NS8sIo1IVfAWeH5TyHs8zS8JHsj7TLiHm3_0CqlsEx_9PJ6-cjEq2JVk_NHJ5xhRFayKVKdNrvCBiWqlt14LGOIcnk4C4j5Htxqiw_Vxj6ZOB3Yg9QQJGI-q4efmbMKjGNk9tp1U4n1HrbplektPhYc3-MnQp6aWAZrOF1j440St8iXx56eS10c1xSNgPHj7nDZGYI1iVGDCiimuLn564QfKOkCP1qYneHWmevqVOhGC8SAVV-pZiXJKCYkK-og33zYYx_SESKGRv_ombcBrMxhTfS7zklCHTH1wD_WAWzEDDAgcCbeAtuCh6qZbqdrKialtZrmdMocbfguhY8_LQG1poAhZl3gB5FHZ0wdZlpI9ctYCTAdPjjsTgq8LSHbkIg5TZYVbRFEiBJ-Cml3u2y9mOiNA0AP5YV6W1ViwiTnk2j4Y4lVBZNQzTRmdShkUNPpEnpljRiAsfIOiduBmFssS_riF9-iD09jNs1c6kzB5vR5PlosGtdDTkUq8jK7MZeS47VRuWNHRVMx6UK-aNRzT3QXYJo-z_yJ-i-DZcdxziN0MUrfj4RKgQt_ZNsRZa3fGrwvoeYlDDRu_Gd8Lu4DBKaus9Q28RztDXsm4qyOUZ2WKYKra9GQamUdgaJhRrT61ULTfm5fhh1yqorvfvGPAh7wFWR7AiMeWxzrmfM42_PM6BQVlfD4bTcURJjjxzecnk6FQptr-gtqTeXi465aK1h7Jvmklgh4gvkd7rYbsdlqD?></g></svg>