<svg xmlns="http://www.w3.org/2000/svg" xmlns:xlink="http://www.w3.org/1999/xlink" version="1.1" data-diagram-type="ACTIVITY" style="width:1006px;height:863px;background:#FFFFFF;" width="1006px" height="863px" viewBox="0 0 1006 863" zoomAndPan="magnify" preserveAspectRatio="none" contentStyleType="text/css"><?plantuml 1.2026.8?><defs/><g font-family="sans-serif" lengthAdjust="spacing"><g class="title" data-source-line="2"><text x="15" y="37.118" fill="#000" font-size="22" textLength="974.628" font-weight="700" font-family="Verdana">AniTec — Diagrama de Actividad: Registro de animales (individual vs. por lote)</text></g><ellipse cx="403.907" cy="67.737" rx="10" ry="10" fill="#FFF" style="stroke:#000;stroke-width:1;"/><rect x="291.945" y="97.737" width="223.924" height="34.584" fill="#FFF" style="stroke:#000;stroke-width:1;" rx="12.5" ry="12.5"/><text x="301.945" y="119.802" fill="#000" font-size="12" textLength="203.924" font-family="Verdana">Ganadero abre "Registrar animal"</text><polygon points="354.321,152.321,453.493,152.321,465.493,164.321,453.493,176.321,354.321,176.321,342.321,164.321,354.321,152.321" fill="#FFF" style="stroke:#000;stroke-width:1;stroke-linejoin:miter;stroke-miterlimit:10;"/><text x="354.321" y="168.696" fill="#000" font-size="11" textLength="99.172" font-family="Verdana">Modo de registro?</text><rect x="55.101" y="213.059" width="366.805" height="63.752" fill="#FFF" style="stroke:#000;stroke-width:1;" rx="12.5" ry="12.5"/><text x="65.101" y="235.123" fill="#000" font-size="12" textLength="266.994" font-family="Verdana">Completar código, nombre, tipo, raza, sexo,</text><text x="65.101" y="249.707" fill="#000" font-size="12" textLength="289.594" font-family="Verdana">fecha de nacimiento, peso, estado, hato, corral,</text><text x="65.101" y="264.291" fill="#000" font-size="12" textLength="346.805" font-family="Verdana">procedencia/rango de edad (opcionales) y foto (opcional)</text><rect x="441.906" y="213.059" width="310.807" height="63.752" fill="#FFF" style="stroke:#000;stroke-width:1;" rx="12.5" ry="12.5"/><text x="451.906" y="235.123" fill="#000" font-size="12" textLength="264.662" font-family="Verdana">Completar hato, corral, especie, raza, sexo,</text><text x="451.906" y="249.707" fill="#000" font-size="12" textLength="290.807" font-family="Verdana">estado, cantidad (1-500), procedencia/rango de</text><text x="451.906" y="264.291" fill="#000" font-size="12" textLength="271.992" font-family="Verdana">edad (opcionales) y foto del corral (opcional)</text><polygon points="403.907,286.811,403.907,286.811,415.907,298.811,403.907,310.811,403.907,310.811,391.907,298.811,403.907,286.811" fill="#FFF" style="stroke:#000;stroke-width:1;stroke-linejoin:miter;stroke-miterlimit:10;"/><rect x="341.802" y="374.811" width="124.209" height="34.584" fill="#FFF" style="stroke:#000;stroke-width:1;" rx="12.5" ry="12.5"/><text x="351.802" y="396.875" fill="#000" font-size="12" textLength="104.209" font-family="Verdana">Enviar formulario</text><path d="M621.633,419.395 L621.633,451.993 L601.633,455.993 L621.633,459.993 L621.633,492.592 A0,0 0 0 0 621.633,492.592 L920.527,492.592 A0,0 0 0 0 920.527,492.592 L920.527,429.395 L910.527,419.395 L621.633,419.395 A0,0 0 0 0 621.633,419.395" style="stroke:#000;stroke-width:1;" fill="#FFF"/><path d="M910.527,419.395 L910.527,429.395 L920.527,429.395 L910.527,419.395" style="stroke:#000;stroke-width:1;" fill="#FFF"/><text x="627.633" y="437.464" fill="#000" font-size="13" textLength="167.083" font-family="Verdana">¿Hato y corral presentes?</text><text x="627.633" y="453.264" fill="#000" font-size="13" textLength="211.358" font-family="Verdana">¿Campos requeridos completos?</text><text x="627.633" y="469.063" fill="#000" font-size="13" textLength="83.11" font-family="Verdana">¿Peso >= 0?</text><text x="627.633" y="484.862" fill="#000" font-size="13" textLength="277.894" font-family="Verdana">¿Cantidad entre 1 y 500? (solo modo lote)</text><rect x="206.181" y="431.409" width="395.451" height="49.168" fill="#FFF" style="stroke:#000;stroke-width:1;" rx="12.5" ry="12.5"/><text x="216.181" y="453.474" fill="#000" font-size="12" textLength="90.545" font-family="Verdana">Servidor valida</text><text x="216.181" y="468.058" fill="#000" font-size="12" textLength="375.451" font-family="Verdana">(ValidateAnimalResource / validación manual en CreateBatch)</text><polygon points="403.907,330.811,415.907,342.811,403.907,354.811,391.907,342.811,403.907,330.811" fill="#FFF" style="stroke:#000;stroke-width:1;stroke-linejoin:miter;stroke-miterlimit:10;"/><polygon points="381.061,512.592,426.753,512.592,438.753,524.592,426.753,536.592,381.061,536.592,369.061,524.592,381.061,512.592" fill="#FFF" style="stroke:#000;stroke-width:1;stroke-linejoin:miter;stroke-miterlimit:10;"/><text x="407.907" y="547.651" fill="#000" font-size="11" textLength="10.538" font-family="Verdana">Sí</text><text x="381.061" y="528.967" fill="#000" font-size="11" textLength="45.692" font-family="Verdana">¿Válido?</text><text x="438.753" y="522.282" fill="#000" font-size="11" textLength="183.063" font-family="Verdana">No — mostrar errores por campo</text><polygon points="386.169,569.151,421.645,569.151,433.645,581.151,421.645,593.151,386.169,593.151,374.169,581.151,386.169,569.151" fill="#FFF" style="stroke:#000;stroke-width:1;stroke-linejoin:miter;stroke-miterlimit:10;"/><text x="386.169" y="585.526" fill="#000" font-size="11" textLength="35.476" font-family="Verdana">Modo?</text><text x="315.871" y="578.841" fill="#000" font-size="11" textLength="54.431" font-family="Verdana">Individual</text><text x="437.512" y="578.841" fill="#000" font-size="11" textLength="42.453" font-family="Verdana">Por lote</text><rect x="185.399" y="603.151" width="170.416" height="34.584" fill="#FFF" style="stroke:#000;stroke-width:1;" rx="12.5" ry="12.5"/><text x="195.399" y="625.215" fill="#000" font-size="12" textLength="32.977" font-family="Verdana">Crear</text><text x="232.594" y="625.215" fill="#000" font-size="12" textLength="17.098" font-weight="700" font-family="Verdana">un</text><text x="253.911" y="625.215" fill="#000" font-size="12" textLength="91.904" font-family="Verdana">registro Animal</text><rect x="375.815" y="603.151" width="322.783" height="63.752" fill="#FFF" style="stroke:#000;stroke-width:1;" rx="12.5" ry="12.5"/><text x="385.815" y="625.215" fill="#000" font-size="12" textLength="32.977" font-family="Verdana">Crear</text><text x="423.01" y="625.215" fill="#000" font-size="12" font-weight="700" font-family="Verdana">N</text><text x="437.389" y="625.215" fill="#000" font-size="12" textLength="98.156" font-family="Verdana">registros Animal</text><text x="385.815" y="639.799" fill="#000" font-size="12" textLength="221.039" font-family="Verdana">(uno por unidad, etiqueta secuencial</text><text x="385.815" y="654.383" fill="#000" font-size="12" textLength="302.783" font-family="Verdana">derivada del corral: Corral1-001, Corral1-002, ...)</text><polygon points="403.907,672.903,415.907,684.903,403.907,696.903,391.907,684.903,403.907,672.903" fill="#FFF" style="stroke:#000;stroke-width:1;stroke-linejoin:miter;stroke-miterlimit:10;"/><rect x="301.024" y="716.903" width="205.766" height="34.584" fill="#FFF" style="stroke:#000;stroke-width:1;" rx="12.5" ry="12.5"/><text x="311.024" y="738.967" fill="#000" font-size="12" textLength="185.766" font-family="Verdana">Redirigir al listado de animales</text><rect x="248.24" y="771.487" width="311.334" height="34.584" fill="#FFF" style="stroke:#000;stroke-width:1;" rx="12.5" ry="12.5"/><text x="258.24" y="793.551" fill="#000" font-size="12" textLength="291.334" font-family="Verdana">Nuevos registros aparecen asociados a su corral</text><ellipse cx="403.907" cy="837.071" rx="11" ry="11" fill="none" style="stroke:#000;stroke-width:1;"/><ellipse cx="403.907" cy="837.071" rx="6" ry="6" fill="#FFF" style="stroke:#000;stroke-width:1;"/><line x1="403.907" y1="77.737" x2="403.907" y2="97.737" style="stroke:#000;stroke-width:1;"/><polygon points="399.907,87.737,403.907,97.737,407.907,87.737,403.907,91.737" fill="#000" style="stroke:#000;stroke-width:1;stroke-linejoin:miter;stroke-miterlimit:10;"/><line x1="342.321" y1="164.321" x2="238.504" y2="164.321" style="stroke:#000;stroke-width:1;"/><line x1="238.504" y1="164.321" x2="238.504" y2="213.059" style="stroke:#000;stroke-width:1;"/><polygon points="234.504,203.059,238.504,213.059,242.504,203.059,238.504,207.059" fill="#000" style="stroke:#000;stroke-width:1;stroke-linejoin:miter;stroke-miterlimit:10;"/><text x="242.371" y="193.065" fill="#000" font-size="11" textLength="54.431" font-family="Verdana">Individual</text><line x1="465.493" y1="164.321" x2="597.309" y2="164.321" style="stroke:#000;stroke-width:1;"/><line x1="597.309" y1="164.321" x2="597.309" y2="213.059" style="stroke:#000;stroke-width:1;"/><polygon points="593.309,203.059,597.309,213.059,601.309,203.059,597.309,207.059" fill="#000" style="stroke:#000;stroke-width:1;stroke-linejoin:miter;stroke-miterlimit:10;"/><text x="601.177" y="193.065" fill="#000" font-size="11" textLength="42.453" font-family="Verdana">Por lote</text><line x1="238.504" y1="276.811" x2="238.504" y2="298.811" style="stroke:#000;stroke-width:1;"/><line x1="238.504" y1="298.811" x2="391.907" y2="298.811" style="stroke:#000;stroke-width:1;"/><polygon points="381.907,294.811,391.907,298.811,381.907,302.811,385.907,298.811" fill="#000" style="stroke:#000;stroke-width:1;stroke-linejoin:miter;stroke-miterlimit:10;"/><line x1="597.309" y1="276.811" x2="597.309" y2="298.811" style="stroke:#000;stroke-width:1;"/><line x1="597.309" y1="298.811" x2="415.907" y2="298.811" style="stroke:#000;stroke-width:1;"/><polygon points="425.907,294.811,415.907,298.811,425.907,302.811,421.907,298.811" fill="#000" style="stroke:#000;stroke-width:1;stroke-linejoin:miter;stroke-miterlimit:10;"/><line x1="403.907" y1="132.321" x2="403.907" y2="152.321" style="stroke:#000;stroke-width:1;"/><polygon points="399.907,142.321,403.907,152.321,407.907,142.321,403.907,146.321" fill="#000" style="stroke:#000;stroke-width:1;stroke-linejoin:miter;stroke-miterlimit:10;"/><line x1="403.907" y1="409.395" x2="403.907" y2="431.409" style="stroke:#000;stroke-width:1;"/><polygon points="399.907,421.409,403.907,431.409,407.907,421.409,403.907,425.409" fill="#000" style="stroke:#000;stroke-width:1;stroke-linejoin:miter;stroke-miterlimit:10;"/><line x1="403.907" y1="354.811" x2="403.907" y2="374.811" style="stroke:#000;stroke-width:1;"/><polygon points="399.907,364.811,403.907,374.811,407.907,364.811,403.907,368.811" fill="#000" style="stroke:#000;stroke-width:1;stroke-linejoin:miter;stroke-miterlimit:10;"/><line x1="438.753" y1="524.592" x2="932.527" y2="524.592" style="stroke:#000;stroke-width:1;"/><polygon points="928.527,431.201,932.527,421.201,936.527,431.201,932.527,427.201" fill="#000" style="stroke:#000;stroke-width:1;stroke-linejoin:miter;stroke-miterlimit:10;"/><line x1="932.527" y1="342.811" x2="932.527" y2="524.592" style="stroke:#000;stroke-width:1;"/><line x1="932.527" y1="342.811" x2="415.907" y2="342.811" style="stroke:#000;stroke-width:1;"/><polygon points="425.907,338.811,415.907,342.811,425.907,346.811,421.907,342.811" fill="#000" style="stroke:#000;stroke-width:1;stroke-linejoin:miter;stroke-miterlimit:10;"/><line x1="403.907" y1="480.577" x2="403.907" y2="512.592" style="stroke:#000;stroke-width:1;"/><polygon points="399.907,502.592,403.907,512.592,407.907,502.592,403.907,506.592" fill="#000" style="stroke:#000;stroke-width:1;stroke-linejoin:miter;stroke-miterlimit:10;"/><line x1="403.907" y1="310.811" x2="403.907" y2="330.811" style="stroke:#000;stroke-width:1;"/><polygon points="399.907,320.811,403.907,330.811,407.907,320.811,403.907,324.811" fill="#000" style="stroke:#000;stroke-width:1;stroke-linejoin:miter;stroke-miterlimit:10;"/><line x1="374.169" y1="581.151" x2="270.607" y2="581.151" style="stroke:#000;stroke-width:1;"/><line x1="270.607" y1="581.151" x2="270.607" y2="603.151" style="stroke:#000;stroke-width:1;"/><polygon points="266.607,593.151,270.607,603.151,274.607,593.151,270.607,597.151" fill="#000" style="stroke:#000;stroke-width:1;stroke-linejoin:miter;stroke-miterlimit:10;"/><line x1="433.645" y1="581.151" x2="537.207" y2="581.151" style="stroke:#000;stroke-width:1;"/><line x1="537.207" y1="581.151" x2="537.207" y2="603.151" style="stroke:#000;stroke-width:1;"/><polygon points="533.207,593.151,537.207,603.151,541.207,593.151,537.207,597.151" fill="#000" style="stroke:#000;stroke-width:1;stroke-linejoin:miter;stroke-miterlimit:10;"/><line x1="270.607" y1="637.735" x2="270.607" y2="684.903" style="stroke:#000;stroke-width:1;"/><line x1="270.607" y1="684.903" x2="391.907" y2="684.903" style="stroke:#000;stroke-width:1;"/><polygon points="381.907,680.903,391.907,684.903,381.907,688.903,385.907,684.903" fill="#000" style="stroke:#000;stroke-width:1;stroke-linejoin:miter;stroke-miterlimit:10;"/><line x1="537.207" y1="666.903" x2="537.207" y2="684.903" style="stroke:#000;stroke-width:1;"/><line x1="537.207" y1="684.903" x2="415.907" y2="684.903" style="stroke:#000;stroke-width:1;"/><polygon points="425.907,680.903,415.907,684.903,425.907,688.903,421.907,684.903" fill="#000" style="stroke:#000;stroke-width:1;stroke-linejoin:miter;stroke-miterlimit:10;"/><line x1="403.907" y1="536.592" x2="403.907" y2="569.151" style="stroke:#000;stroke-width:1;"/><polygon points="399.907,559.151,403.907,569.151,407.907,559.151,403.907,563.151" fill="#000" style="stroke:#000;stroke-width:1;stroke-linejoin:miter;stroke-miterlimit:10;"/><line x1="403.907" y1="696.903" x2="403.907" y2="716.903" style="stroke:#000;stroke-width:1;"/><polygon points="399.907,706.903,403.907,716.903,407.907,706.903,403.907,710.903" fill="#000" style="stroke:#000;stroke-width:1;stroke-linejoin:miter;stroke-miterlimit:10;"/><line x1="403.907" y1="751.487" x2="403.907" y2="771.487" style="stroke:#000;stroke-width:1;"/><polygon points="399.907,761.487,403.907,771.487,407.907,761.487,403.907,765.487" fill="#000" style="stroke:#000;stroke-width:1;stroke-linejoin:miter;stroke-miterlimit:10;"/><line x1="403.907" y1="806.071" x2="403.907" y2="826.071" style="stroke:#000;stroke-width:1;"/><polygon points="399.907,816.071,403.907,826.071,407.907,816.071,403.907,820.071" fill="#000" style="stroke:#000;stroke-width:1;stroke-linejoin:miter;stroke-miterlimit:10;"/><?plantuml-src TPJFSjCm4CRlVegb5-9Cx2HCk2G37GX_3tGwBTFx8csI1Laoafm29nw25-01EFK1EjEy2K_2odRRj5CkYIsjjB_zzbi_YXkg26g3RBF8qH2yiFoH5Fpz-GjUCQuzLWXQbbNaBMlKSpYXDOVeNLf6onKQ2Z1WgrD0WmQseOJQUJ0kKfuzXZSDsKZp51n95PvaCuuhz5-qExTZvMJNnh7QO1t95xFnh9WMcWAlRI6RYkeOYYtJUUtOogF4w0ujb9MM18D0Il7kmiAid9Qpl8Gtfldim9FGS5KRAT96r0x8ziZ5olcgt3O4urIoh8IbS7Xd3Faooq947xFvMxIeIMh5JvxWe2yTVN_BmK8Yppcg3Gm-EDrAudjv3lDCOI0OmFjRQV8COBvq2KaIWDfTQ5wx4LXNIO8HHAxbpUCF746WRsuayIiIPTBD5XLNB9L8I4r1VYcagaQmmRIcdFTeqf7QEqMQh68SUxJh5eoaUp1mjM9dKyzo-0uh5ztjMhwuHZxkstSV-4uYIL-JOheFV4sbq4PkaqwBfvD9FdgGAntu7vacqoUx0qbMTwfdcPY9C2R8rtRBGfZwsXZqx1PfzPIyI2_LRD48YomDpjgdI5tRJqJ8nglaWowaCrA5DlLB_B8K5qLwYP8kJrVQ98ldzIPb1RYwV2UQ273FMNiAoUxXiDzUObMx8BRusf0Nb22HhPpk9kHO6E3vCvZSdkcLavl4TrEvNWGy5ACxuw1AJkk6IxIpkaNgbO3p3SiK3wukptQ_fHon8R2Cvv5hHxfodNt9UoUWxPYg19YdIs1mklkJPnclEZlBMVb0s8SiBA9u60uREnpUEBuV9EcFUSX4_P6ZlHEXFvBQqbZNuZGsLIxcYYoAHHHRgQQrJ0gJOUGjQjopnXoMxV-qc4ocexsN9oCeoxBp2w-oR7v2cgLpBEDhm71hq_sls2AR7pMqRRjr3OWrUbBfkn6SCAJ-2LBJvqxp7rtz3m00?></g></svg>